<mxfile host="app.diagrams.net" agent="Mozilla/5.0 (Windows NT 10.0; Win64; x64; rv:143.0) Gecko/20100101 Firefox/143.0" version="28.2.5">
  <diagram name="Pagina-1" id="uiMAXN-AaRVMJqBAk0hw">
    <mxGraphModel dx="3900" dy="1117" grid="1" gridSize="10" guides="1" tooltips="1" connect="1" arrows="1" fold="1" page="1" pageScale="1" pageWidth="827" pageHeight="1169" math="0" shadow="0">
      <root>
        <mxCell id="0" />
        <mxCell id="1" parent="0" />
        <mxCell id="JfNqwr-3UXqEqC72-lb5-3" style="rounded=0;orthogonalLoop=1;jettySize=auto;html=1;exitX=1;exitY=0.5;exitDx=0;exitDy=0;entryX=0;entryY=0.5;entryDx=0;entryDy=0;endArrow=none;endFill=0;" edge="1" parent="1" source="2kPLmt5Cf6suRaBcKYo_-1" target="JfNqwr-3UXqEqC72-lb5-2">
          <mxGeometry relative="1" as="geometry" />
        </mxCell>
        <mxCell id="2kPLmt5Cf6suRaBcKYo_-1" value="Studente" style="rounded=0;whiteSpace=wrap;html=1;" parent="1" vertex="1">
          <mxGeometry x="-74" y="440" width="120" height="50" as="geometry" />
        </mxCell>
        <mxCell id="2kPLmt5Cf6suRaBcKYo_-2" value="" style="endArrow=none;html=1;rounded=0;entryX=1;entryY=1;entryDx=0;entryDy=0;" parent="1" target="2kPLmt5Cf6suRaBcKYo_-4" edge="1">
          <mxGeometry width="50" height="50" relative="1" as="geometry">
            <mxPoint x="-48" y="440" as="sourcePoint" />
            <mxPoint x="-78.5285426814346" y="389.1190955309421" as="targetPoint" />
          </mxGeometry>
        </mxCell>
        <mxCell id="2kPLmt5Cf6suRaBcKYo_-4" value="&lt;u&gt;Matricola&lt;/u&gt;" style="ellipse;whiteSpace=wrap;html=1;" parent="1" vertex="1">
          <mxGeometry x="-154" y="260" width="80" height="60" as="geometry" />
        </mxCell>
        <mxCell id="2kPLmt5Cf6suRaBcKYo_-5" value="Email" style="ellipse;whiteSpace=wrap;html=1;" parent="1" vertex="1">
          <mxGeometry x="-58" y="250" width="80" height="60" as="geometry" />
        </mxCell>
        <mxCell id="2kPLmt5Cf6suRaBcKYo_-6" value="" style="endArrow=none;html=1;rounded=0;entryX=0.5;entryY=1;entryDx=0;entryDy=0;exitX=0.5;exitY=0;exitDx=0;exitDy=0;" parent="1" source="2kPLmt5Cf6suRaBcKYo_-1" target="2kPLmt5Cf6suRaBcKYo_-5" edge="1">
          <mxGeometry width="50" height="50" relative="1" as="geometry">
            <mxPoint x="2.528542681434601" y="460.8809044690579" as="sourcePoint" />
            <mxPoint x="-28" y="410" as="targetPoint" />
          </mxGeometry>
        </mxCell>
        <mxCell id="2kPLmt5Cf6suRaBcKYo_-7" value="Username" style="ellipse;whiteSpace=wrap;html=1;" parent="1" vertex="1">
          <mxGeometry x="40" y="250" width="80" height="60" as="geometry" />
        </mxCell>
        <mxCell id="2kPLmt5Cf6suRaBcKYo_-8" value="" style="endArrow=none;html=1;rounded=0;entryX=0.5;entryY=1;entryDx=0;entryDy=0;exitX=0.75;exitY=0;exitDx=0;exitDy=0;" parent="1" target="2kPLmt5Cf6suRaBcKYo_-7" edge="1" source="2kPLmt5Cf6suRaBcKYo_-1">
          <mxGeometry width="50" height="50" relative="1" as="geometry">
            <mxPoint x="32" y="440" as="sourcePoint" />
            <mxPoint x="38" y="400" as="targetPoint" />
          </mxGeometry>
        </mxCell>
        <mxCell id="2kPLmt5Cf6suRaBcKYo_-9" value="" style="endArrow=none;html=1;rounded=0;entryX=1;entryY=1;entryDx=0;entryDy=0;exitX=0;exitY=0;exitDx=0;exitDy=0;" parent="1" source="2kPLmt5Cf6suRaBcKYo_-1" target="2kPLmt5Cf6suRaBcKYo_-10" edge="1">
          <mxGeometry width="50" height="50" relative="1" as="geometry">
            <mxPoint x="-110" y="479" as="sourcePoint" />
            <mxPoint x="-148" y="430" as="targetPoint" />
          </mxGeometry>
        </mxCell>
        <mxCell id="2kPLmt5Cf6suRaBcKYo_-10" value="Nome" style="ellipse;whiteSpace=wrap;html=1;" parent="1" vertex="1">
          <mxGeometry x="-234" y="300" width="80" height="60" as="geometry" />
        </mxCell>
        <mxCell id="2kPLmt5Cf6suRaBcKYo_-11" value="Cognome" style="ellipse;whiteSpace=wrap;html=1;" parent="1" vertex="1">
          <mxGeometry x="128" y="270" width="80" height="60" as="geometry" />
        </mxCell>
        <mxCell id="2kPLmt5Cf6suRaBcKYo_-12" value="" style="endArrow=none;html=1;rounded=0;entryX=0;entryY=1;entryDx=0;entryDy=0;exitX=1;exitY=0;exitDx=0;exitDy=0;" parent="1" source="2kPLmt5Cf6suRaBcKYo_-1" target="2kPLmt5Cf6suRaBcKYo_-11" edge="1">
          <mxGeometry width="50" height="50" relative="1" as="geometry">
            <mxPoint x="118" y="483" as="sourcePoint" />
            <mxPoint x="54" y="460" as="targetPoint" />
          </mxGeometry>
        </mxCell>
        <mxCell id="2kPLmt5Cf6suRaBcKYo_-13" value="Passkey" style="ellipse;whiteSpace=wrap;html=1;" parent="1" vertex="1">
          <mxGeometry x="-296" y="360" width="80" height="60" as="geometry" />
        </mxCell>
        <mxCell id="2kPLmt5Cf6suRaBcKYo_-17" value="" style="endArrow=none;html=1;rounded=0;entryX=0;entryY=0.5;entryDx=0;entryDy=0;exitX=1;exitY=0.5;exitDx=0;exitDy=0;" parent="1" source="2kPLmt5Cf6suRaBcKYo_-13" target="2kPLmt5Cf6suRaBcKYo_-1" edge="1">
          <mxGeometry width="50" height="50" relative="1" as="geometry">
            <mxPoint x="-148" y="480" as="sourcePoint" />
            <mxPoint x="-98" y="430" as="targetPoint" />
          </mxGeometry>
        </mxCell>
        <mxCell id="2kPLmt5Cf6suRaBcKYo_-19" value="" style="endArrow=none;html=1;rounded=0;exitX=0.5;exitY=0;exitDx=0;exitDy=0;" parent="1" source="2kPLmt5Cf6suRaBcKYo_-20" edge="1">
          <mxGeometry width="50" height="50" relative="1" as="geometry">
            <mxPoint x="-8" y="610" as="sourcePoint" />
            <mxPoint x="-8" y="490" as="targetPoint" />
          </mxGeometry>
        </mxCell>
        <mxCell id="2kPLmt5Cf6suRaBcKYo_-20" value="" style="rhombus;whiteSpace=wrap;html=1;" parent="1" vertex="1">
          <mxGeometry x="-48" y="690" width="80" height="80" as="geometry" />
        </mxCell>
        <mxCell id="2kPLmt5Cf6suRaBcKYo_-21" value="Pubblica" style="text;html=1;align=center;verticalAlign=middle;whiteSpace=wrap;rounded=0;" parent="1" vertex="1">
          <mxGeometry x="-38" y="715" width="60" height="30" as="geometry" />
        </mxCell>
        <mxCell id="2kPLmt5Cf6suRaBcKYo_-23" value="" style="endArrow=none;html=1;rounded=0;exitX=1;exitY=0.5;exitDx=0;exitDy=0;" parent="1" source="2kPLmt5Cf6suRaBcKYo_-24" edge="1">
          <mxGeometry width="50" height="50" relative="1" as="geometry">
            <mxPoint x="-208" y="729.47" as="sourcePoint" />
            <mxPoint x="-48" y="729.47" as="targetPoint" />
          </mxGeometry>
        </mxCell>
        <mxCell id="2kPLmt5Cf6suRaBcKYo_-70" style="rounded=0;orthogonalLoop=1;jettySize=auto;html=1;exitX=0.5;exitY=1;exitDx=0;exitDy=0;shape=filledEdge;endArrow=none;endFill=0;sourcePerimeterSpacing=0;targetPerimeterSpacing=0;jumpSize=6;" parent="1" edge="1">
          <mxGeometry relative="1" as="geometry">
            <mxPoint x="-352" y="913" as="targetPoint" />
            <mxPoint x="-351.7199999999999" y="755" as="sourcePoint" />
          </mxGeometry>
        </mxCell>
        <mxCell id="2kPLmt5Cf6suRaBcKYo_-24" value="Annuncio" style="rounded=0;whiteSpace=wrap;html=1;" parent="1" vertex="1">
          <mxGeometry x="-408" y="705" width="120" height="50" as="geometry" />
        </mxCell>
        <mxCell id="2kPLmt5Cf6suRaBcKYo_-53" style="rounded=0;orthogonalLoop=1;jettySize=auto;html=1;exitX=1;exitY=1;exitDx=0;exitDy=0;endArrow=none;endFill=0;entryX=0;entryY=0;entryDx=0;entryDy=0;" parent="1" source="2kPLmt5Cf6suRaBcKYo_-26" target="2kPLmt5Cf6suRaBcKYo_-24" edge="1">
          <mxGeometry relative="1" as="geometry">
            <mxPoint x="-408" y="700" as="targetPoint" />
          </mxGeometry>
        </mxCell>
        <mxCell id="2kPLmt5Cf6suRaBcKYo_-26" value="Titolo" style="ellipse;whiteSpace=wrap;html=1;" parent="1" vertex="1">
          <mxGeometry x="-570" y="500" width="70" height="60" as="geometry" />
        </mxCell>
        <mxCell id="2kPLmt5Cf6suRaBcKYo_-54" style="rounded=0;orthogonalLoop=1;jettySize=auto;html=1;exitX=0.5;exitY=1;exitDx=0;exitDy=0;entryX=0.25;entryY=0;entryDx=0;entryDy=0;endArrow=none;endFill=0;" parent="1" source="2kPLmt5Cf6suRaBcKYo_-27" target="2kPLmt5Cf6suRaBcKYo_-24" edge="1">
          <mxGeometry relative="1" as="geometry" />
        </mxCell>
        <mxCell id="2kPLmt5Cf6suRaBcKYo_-27" value="FasciaOrariaInizio" style="ellipse;whiteSpace=wrap;html=1;" parent="1" vertex="1">
          <mxGeometry x="-490" y="490" width="110" height="60" as="geometry" />
        </mxCell>
        <mxCell id="2kPLmt5Cf6suRaBcKYo_-55" style="rounded=0;orthogonalLoop=1;jettySize=auto;html=1;exitX=0.5;exitY=1;exitDx=0;exitDy=0;entryX=0.5;entryY=0;entryDx=0;entryDy=0;endArrow=none;endFill=0;" parent="1" source="2kPLmt5Cf6suRaBcKYo_-29" target="2kPLmt5Cf6suRaBcKYo_-24" edge="1">
          <mxGeometry relative="1" as="geometry" />
        </mxCell>
        <mxCell id="2kPLmt5Cf6suRaBcKYo_-29" value="FasciaOrariaFine" style="ellipse;whiteSpace=wrap;html=1;" parent="1" vertex="1">
          <mxGeometry x="-366" y="490" width="110" height="60" as="geometry" />
        </mxCell>
        <mxCell id="2kPLmt5Cf6suRaBcKYo_-52" style="rounded=0;orthogonalLoop=1;jettySize=auto;html=1;exitX=0;exitY=1;exitDx=0;exitDy=0;endArrow=none;endFill=0;entryX=1;entryY=0;entryDx=0;entryDy=0;" parent="1" source="2kPLmt5Cf6suRaBcKYo_-32" target="2kPLmt5Cf6suRaBcKYo_-24" edge="1">
          <mxGeometry relative="1" as="geometry">
            <mxPoint x="-408" y="710" as="targetPoint" />
          </mxGeometry>
        </mxCell>
        <mxCell id="2kPLmt5Cf6suRaBcKYo_-32" value="StatoAnnuncio" style="ellipse;whiteSpace=wrap;html=1;" parent="1" vertex="1">
          <mxGeometry x="-148" y="530" width="90" height="60" as="geometry" />
        </mxCell>
        <mxCell id="2kPLmt5Cf6suRaBcKYo_-45" value="Offerta" style="rounded=0;whiteSpace=wrap;html=1;" parent="1" vertex="1">
          <mxGeometry x="262" y="705" width="120" height="50" as="geometry" />
        </mxCell>
        <mxCell id="2kPLmt5Cf6suRaBcKYo_-62" style="rounded=0;orthogonalLoop=1;jettySize=auto;html=1;exitX=0;exitY=1;exitDx=0;exitDy=0;entryX=0.75;entryY=0;entryDx=0;entryDy=0;endArrow=none;endFill=0;" parent="1" source="2kPLmt5Cf6suRaBcKYo_-50" target="2kPLmt5Cf6suRaBcKYo_-24" edge="1">
          <mxGeometry relative="1" as="geometry" />
        </mxCell>
        <mxCell id="2kPLmt5Cf6suRaBcKYo_-50" value="Descrizione" style="ellipse;whiteSpace=wrap;html=1;" parent="1" vertex="1">
          <mxGeometry x="-238" y="500" width="80" height="60" as="geometry" />
        </mxCell>
        <mxCell id="2kPLmt5Cf6suRaBcKYo_-57" style="rounded=0;orthogonalLoop=1;jettySize=auto;html=1;exitX=1;exitY=1;exitDx=0;exitDy=0;entryX=0;entryY=0.25;entryDx=0;entryDy=0;endArrow=none;endFill=0;" parent="1" source="2kPLmt5Cf6suRaBcKYo_-51" target="2kPLmt5Cf6suRaBcKYo_-24" edge="1">
          <mxGeometry relative="1" as="geometry" />
        </mxCell>
        <mxCell id="JfNqwr-3UXqEqC72-lb5-7" style="rounded=0;orthogonalLoop=1;jettySize=auto;html=1;exitX=0;exitY=0.5;exitDx=0;exitDy=0;entryX=1;entryY=1;entryDx=0;entryDy=0;endArrow=none;endFill=0;" edge="1" parent="1" source="2kPLmt5Cf6suRaBcKYo_-51" target="JfNqwr-3UXqEqC72-lb5-11">
          <mxGeometry relative="1" as="geometry">
            <mxPoint x="-800" y="490" as="targetPoint" />
          </mxGeometry>
        </mxCell>
        <mxCell id="JfNqwr-3UXqEqC72-lb5-8" style="rounded=0;orthogonalLoop=1;jettySize=auto;html=1;exitX=0;exitY=0;exitDx=0;exitDy=0;entryX=1;entryY=1;entryDx=0;entryDy=0;endArrow=none;endFill=0;" edge="1" parent="1" source="2kPLmt5Cf6suRaBcKYo_-51" target="JfNqwr-3UXqEqC72-lb5-12">
          <mxGeometry relative="1" as="geometry">
            <mxPoint x="-750" y="480" as="targetPoint" />
          </mxGeometry>
        </mxCell>
        <mxCell id="JfNqwr-3UXqEqC72-lb5-18" style="rounded=0;orthogonalLoop=1;jettySize=auto;html=1;exitX=0.5;exitY=0;exitDx=0;exitDy=0;entryX=0.5;entryY=1;entryDx=0;entryDy=0;endArrow=none;endFill=0;" edge="1" parent="1" source="2kPLmt5Cf6suRaBcKYo_-51" target="JfNqwr-3UXqEqC72-lb5-14">
          <mxGeometry relative="1" as="geometry" />
        </mxCell>
        <mxCell id="JfNqwr-3UXqEqC72-lb5-19" style="rounded=0;orthogonalLoop=1;jettySize=auto;html=1;exitX=1;exitY=0;exitDx=0;exitDy=0;entryX=0.5;entryY=1;entryDx=0;entryDy=0;endArrow=none;endFill=0;" edge="1" parent="1" source="2kPLmt5Cf6suRaBcKYo_-51" target="JfNqwr-3UXqEqC72-lb5-15">
          <mxGeometry relative="1" as="geometry" />
        </mxCell>
        <mxCell id="2kPLmt5Cf6suRaBcKYo_-51" value="Sede" style="ellipse;whiteSpace=wrap;html=1;" parent="1" vertex="1">
          <mxGeometry x="-660" y="525" width="70" height="60" as="geometry" />
        </mxCell>
        <mxCell id="2kPLmt5Cf6suRaBcKYo_-66" value="" style="verticalLabelPosition=bottom;verticalAlign=top;html=1;shape=mxgraph.basic.arc;startAngle=0.4426947779274273;endAngle=0.05481302638794724;rotation=-45;" parent="1" vertex="1">
          <mxGeometry x="-425" y="974" width="30" height="20" as="geometry" />
        </mxCell>
        <mxCell id="2kPLmt5Cf6suRaBcKYo_-97" style="rounded=0;orthogonalLoop=1;jettySize=auto;html=1;exitX=0.25;exitY=0;exitDx=0;exitDy=0;endArrow=none;endFill=0;" parent="1" source="2kPLmt5Cf6suRaBcKYo_-72" target="2kPLmt5Cf6suRaBcKYo_-98" edge="1">
          <mxGeometry relative="1" as="geometry">
            <mxPoint x="-577" y="994" as="targetPoint" />
          </mxGeometry>
        </mxCell>
        <mxCell id="JfNqwr-3UXqEqC72-lb5-31" style="rounded=0;orthogonalLoop=1;jettySize=auto;html=1;exitX=0.5;exitY=1;exitDx=0;exitDy=0;entryX=0;entryY=0.5;entryDx=0;entryDy=0;endArrow=none;endFill=0;edgeStyle=orthogonalEdgeStyle;" edge="1" parent="1" source="2kPLmt5Cf6suRaBcKYo_-72" target="JfNqwr-3UXqEqC72-lb5-30">
          <mxGeometry relative="1" as="geometry" />
        </mxCell>
        <mxCell id="2kPLmt5Cf6suRaBcKYo_-72" value="AnnuncioVendita" style="rounded=0;whiteSpace=wrap;html=1;" parent="1" vertex="1">
          <mxGeometry x="-577" y="1064" width="110" height="50" as="geometry" />
        </mxCell>
        <mxCell id="2kPLmt5Cf6suRaBcKYo_-73" style="rounded=0;orthogonalLoop=1;jettySize=auto;html=1;exitX=0.531;exitY=1.002;exitDx=0;exitDy=0;shape=filledEdge;endArrow=none;endFill=0;sourcePerimeterSpacing=0;targetPerimeterSpacing=0;jumpSize=6;spacingLeft=0;exitPerimeter=0;" parent="1" edge="1">
          <mxGeometry relative="1" as="geometry">
            <mxPoint x="-348" y="913" as="targetPoint" />
            <mxPoint x="-348" y="755.1" as="sourcePoint" />
          </mxGeometry>
        </mxCell>
        <mxCell id="2kPLmt5Cf6suRaBcKYo_-77" style="rounded=0;orthogonalLoop=1;jettySize=auto;html=1;exitX=0;exitY=1;exitDx=0;exitDy=0;endArrow=none;endFill=0;entryX=0.75;entryY=0;entryDx=0;entryDy=0;" parent="1" source="2kPLmt5Cf6suRaBcKYo_-76" target="2kPLmt5Cf6suRaBcKYo_-72" edge="1">
          <mxGeometry relative="1" as="geometry">
            <mxPoint x="-447" y="1034" as="targetPoint" />
          </mxGeometry>
        </mxCell>
        <mxCell id="2kPLmt5Cf6suRaBcKYo_-78" style="rounded=0;orthogonalLoop=1;jettySize=auto;html=1;exitX=1;exitY=1;exitDx=0;exitDy=0;endArrow=none;endFill=0;entryX=0.5;entryY=0;entryDx=0;entryDy=0;" parent="1" target="2kPLmt5Cf6suRaBcKYo_-82" edge="1">
          <mxGeometry relative="1" as="geometry">
            <mxPoint x="-351.21000000000004" y="1054" as="targetPoint" />
            <mxPoint x="-351.4033982822018" y="942.9966017177982" as="sourcePoint" />
          </mxGeometry>
        </mxCell>
        <mxCell id="2kPLmt5Cf6suRaBcKYo_-76" value="&lt;b&gt;d&lt;/b&gt;" style="ellipse;whiteSpace=wrap;html=1;aspect=fixed;" parent="1" vertex="1">
          <mxGeometry x="-366" y="913" width="30" height="30" as="geometry" />
        </mxCell>
        <mxCell id="2kPLmt5Cf6suRaBcKYo_-79" value="" style="verticalLabelPosition=bottom;verticalAlign=top;html=1;shape=mxgraph.basic.arc;startAngle=0.4426947779274273;endAngle=0.05481302638794724;rotation=-90;" parent="1" vertex="1">
          <mxGeometry x="-366.00233047033635" y="983.9976695296638" width="30" height="20" as="geometry" />
        </mxCell>
        <mxCell id="JfNqwr-3UXqEqC72-lb5-34" style="rounded=0;orthogonalLoop=1;jettySize=auto;html=1;exitX=0.5;exitY=1;exitDx=0;exitDy=0;entryX=0;entryY=0.5;entryDx=0;entryDy=0;endArrow=none;endFill=0;edgeStyle=orthogonalEdgeStyle;" edge="1" parent="1" source="2kPLmt5Cf6suRaBcKYo_-82" target="JfNqwr-3UXqEqC72-lb5-33">
          <mxGeometry relative="1" as="geometry" />
        </mxCell>
        <mxCell id="2kPLmt5Cf6suRaBcKYo_-82" value="AnnuncioScambio" style="rounded=0;whiteSpace=wrap;html=1;" parent="1" vertex="1">
          <mxGeometry x="-406" y="1064" width="110" height="50" as="geometry" />
        </mxCell>
        <mxCell id="JfNqwr-3UXqEqC72-lb5-38" style="rounded=0;orthogonalLoop=1;jettySize=auto;html=1;exitX=0.25;exitY=1;exitDx=0;exitDy=0;entryX=0;entryY=0.5;entryDx=0;entryDy=0;endArrow=none;endFill=0;edgeStyle=orthogonalEdgeStyle;" edge="1" parent="1" source="2kPLmt5Cf6suRaBcKYo_-83" target="JfNqwr-3UXqEqC72-lb5-36">
          <mxGeometry relative="1" as="geometry" />
        </mxCell>
        <mxCell id="2kPLmt5Cf6suRaBcKYo_-83" value="AnnuncioRegalo" style="rounded=0;whiteSpace=wrap;html=1;" parent="1" vertex="1">
          <mxGeometry x="-237" y="1064" width="110" height="50" as="geometry" />
        </mxCell>
        <mxCell id="2kPLmt5Cf6suRaBcKYo_-91" value="" style="verticalLabelPosition=bottom;verticalAlign=top;html=1;shape=mxgraph.basic.arc;startAngle=0.4426947779274273;endAngle=0.05481302638794724;rotation=-130;" parent="1" vertex="1">
          <mxGeometry x="-307" y="974" width="30" height="20" as="geometry" />
        </mxCell>
        <mxCell id="2kPLmt5Cf6suRaBcKYo_-92" style="rounded=0;orthogonalLoop=1;jettySize=auto;html=1;exitX=1;exitY=1;exitDx=0;exitDy=0;endArrow=none;endFill=0;entryX=0.25;entryY=0;entryDx=0;entryDy=0;" parent="1" source="2kPLmt5Cf6suRaBcKYo_-76" target="2kPLmt5Cf6suRaBcKYo_-83" edge="1">
          <mxGeometry relative="1" as="geometry">
            <mxPoint x="-219" y="1029" as="targetPoint" />
            <mxPoint x="-87" y="904" as="sourcePoint" />
          </mxGeometry>
        </mxCell>
        <mxCell id="2kPLmt5Cf6suRaBcKYo_-98" value="Prezzo" style="ellipse;whiteSpace=wrap;html=1;" parent="1" vertex="1">
          <mxGeometry x="-617" y="954" width="80" height="50" as="geometry" />
        </mxCell>
        <mxCell id="2kPLmt5Cf6suRaBcKYo_-99" style="rounded=0;orthogonalLoop=1;jettySize=auto;html=1;entryX=1;entryY=0;entryDx=0;entryDy=0;endArrow=none;endFill=0;exitX=0;exitY=1;exitDx=0;exitDy=0;" parent="1" target="2kPLmt5Cf6suRaBcKYo_-45" edge="1" source="2kPLmt5Cf6suRaBcKYo_-100">
          <mxGeometry relative="1" as="geometry">
            <mxPoint x="448" y="715" as="targetPoint" />
            <mxPoint x="398" y="640" as="sourcePoint" />
          </mxGeometry>
        </mxCell>
        <mxCell id="2kPLmt5Cf6suRaBcKYo_-100" value="StatoOfferta" style="ellipse;whiteSpace=wrap;html=1;" parent="1" vertex="1">
          <mxGeometry x="430" y="620" width="90" height="60" as="geometry" />
        </mxCell>
        <mxCell id="2kPLmt5Cf6suRaBcKYo_-102" style="rounded=0;orthogonalLoop=1;jettySize=auto;html=1;exitX=0.5;exitY=1;exitDx=0;exitDy=0;shape=filledEdge;endArrow=none;endFill=0;sourcePerimeterSpacing=0;targetPerimeterSpacing=0;jumpSize=6;" parent="1" edge="1">
          <mxGeometry relative="1" as="geometry">
            <mxPoint x="323" y="897" as="targetPoint" />
            <mxPoint x="322.0000000000001" y="755.1" as="sourcePoint" />
          </mxGeometry>
        </mxCell>
        <mxCell id="2kPLmt5Cf6suRaBcKYo_-103" value="" style="verticalLabelPosition=bottom;verticalAlign=top;html=1;shape=mxgraph.basic.arc;startAngle=0.4426947779274273;endAngle=0.05481302638794724;rotation=-45;" parent="1" vertex="1">
          <mxGeometry x="250" y="952" width="30" height="20" as="geometry" />
        </mxCell>
        <mxCell id="2kPLmt5Cf6suRaBcKYo_-105" value="OffertaVendita" style="rounded=0;whiteSpace=wrap;html=1;" parent="1" vertex="1">
          <mxGeometry x="98" y="1042" width="110" height="50" as="geometry" />
        </mxCell>
        <mxCell id="2kPLmt5Cf6suRaBcKYo_-106" style="rounded=0;orthogonalLoop=1;jettySize=auto;html=1;exitX=0.531;exitY=1.002;exitDx=0;exitDy=0;shape=filledEdge;endArrow=none;endFill=0;sourcePerimeterSpacing=0;targetPerimeterSpacing=0;jumpSize=6;spacingLeft=0;exitPerimeter=0;" parent="1" edge="1">
          <mxGeometry relative="1" as="geometry">
            <mxPoint x="326" y="897" as="targetPoint" />
            <mxPoint x="325.72" y="755.1" as="sourcePoint" />
          </mxGeometry>
        </mxCell>
        <mxCell id="2kPLmt5Cf6suRaBcKYo_-107" style="rounded=0;orthogonalLoop=1;jettySize=auto;html=1;exitX=0;exitY=1;exitDx=0;exitDy=0;endArrow=none;endFill=0;entryX=0.75;entryY=0;entryDx=0;entryDy=0;" parent="1" source="2kPLmt5Cf6suRaBcKYo_-109" target="2kPLmt5Cf6suRaBcKYo_-105" edge="1">
          <mxGeometry relative="1" as="geometry">
            <mxPoint x="228" y="1012" as="targetPoint" />
          </mxGeometry>
        </mxCell>
        <mxCell id="2kPLmt5Cf6suRaBcKYo_-108" style="rounded=0;orthogonalLoop=1;jettySize=auto;html=1;exitX=1;exitY=1;exitDx=0;exitDy=0;endArrow=none;endFill=0;entryX=0.5;entryY=0;entryDx=0;entryDy=0;" parent="1" target="2kPLmt5Cf6suRaBcKYo_-111" edge="1">
          <mxGeometry relative="1" as="geometry">
            <mxPoint x="323.79" y="1032" as="targetPoint" />
            <mxPoint x="323.5966017177982" y="920.9966017177981" as="sourcePoint" />
          </mxGeometry>
        </mxCell>
        <mxCell id="2kPLmt5Cf6suRaBcKYo_-109" value="&lt;b&gt;d&lt;/b&gt;" style="ellipse;whiteSpace=wrap;html=1;aspect=fixed;" parent="1" vertex="1">
          <mxGeometry x="309" y="891" width="30" height="30" as="geometry" />
        </mxCell>
        <mxCell id="2kPLmt5Cf6suRaBcKYo_-110" value="" style="verticalLabelPosition=bottom;verticalAlign=top;html=1;shape=mxgraph.basic.arc;startAngle=0.4426947779274273;endAngle=0.05481302638794724;rotation=-90;" parent="1" vertex="1">
          <mxGeometry x="308.9976695296637" y="961.9976695296637" width="30" height="20" as="geometry" />
        </mxCell>
        <mxCell id="2kPLmt5Cf6suRaBcKYo_-111" value="OffertaScambio" style="rounded=0;whiteSpace=wrap;html=1;" parent="1" vertex="1">
          <mxGeometry x="269" y="1042" width="110" height="50" as="geometry" />
        </mxCell>
        <mxCell id="2kPLmt5Cf6suRaBcKYo_-112" value="OffertaRegalo" style="rounded=0;whiteSpace=wrap;html=1;" parent="1" vertex="1">
          <mxGeometry x="438" y="1042" width="110" height="50" as="geometry" />
        </mxCell>
        <mxCell id="2kPLmt5Cf6suRaBcKYo_-113" value="" style="verticalLabelPosition=bottom;verticalAlign=top;html=1;shape=mxgraph.basic.arc;startAngle=0.4426947779274273;endAngle=0.05481302638794724;rotation=-130;" parent="1" vertex="1">
          <mxGeometry x="368" y="952" width="30" height="20" as="geometry" />
        </mxCell>
        <mxCell id="2kPLmt5Cf6suRaBcKYo_-114" style="rounded=0;orthogonalLoop=1;jettySize=auto;html=1;exitX=1;exitY=1;exitDx=0;exitDy=0;endArrow=none;endFill=0;entryX=0.25;entryY=0;entryDx=0;entryDy=0;" parent="1" source="2kPLmt5Cf6suRaBcKYo_-109" target="2kPLmt5Cf6suRaBcKYo_-112" edge="1">
          <mxGeometry relative="1" as="geometry">
            <mxPoint x="456" y="1007" as="targetPoint" />
            <mxPoint x="588" y="882" as="sourcePoint" />
          </mxGeometry>
        </mxCell>
        <mxCell id="2kPLmt5Cf6suRaBcKYo_-116" style="rounded=0;orthogonalLoop=1;jettySize=auto;html=1;endArrow=none;endFill=0;" parent="1" edge="1">
          <mxGeometry relative="1" as="geometry">
            <mxPoint x="543.1800108465854" y="984.384675894735" as="targetPoint" />
            <mxPoint x="522" y="1042" as="sourcePoint" />
          </mxGeometry>
        </mxCell>
        <mxCell id="2kPLmt5Cf6suRaBcKYo_-117" value="Motivazione" style="ellipse;whiteSpace=wrap;html=1;" parent="1" vertex="1">
          <mxGeometry x="512" y="934" width="80" height="50" as="geometry" />
        </mxCell>
        <mxCell id="2kPLmt5Cf6suRaBcKYo_-118" value="PrezzoOfferto" style="ellipse;whiteSpace=wrap;html=1;" parent="1" vertex="1">
          <mxGeometry x="22" y="943" width="90" height="50" as="geometry" />
        </mxCell>
        <mxCell id="2kPLmt5Cf6suRaBcKYo_-119" style="rounded=0;orthogonalLoop=1;jettySize=auto;html=1;endArrow=none;endFill=0;entryX=0.5;entryY=1;entryDx=0;entryDy=0;" parent="1" target="2kPLmt5Cf6suRaBcKYo_-118" edge="1">
          <mxGeometry relative="1" as="geometry">
            <mxPoint x="143.18001084658545" y="984.38" as="targetPoint" />
            <mxPoint x="122" y="1041.995324105265" as="sourcePoint" />
          </mxGeometry>
        </mxCell>
        <mxCell id="2kPLmt5Cf6suRaBcKYo_-128" style="rounded=0;orthogonalLoop=1;jettySize=auto;html=1;exitX=0.25;exitY=0;exitDx=0;exitDy=0;endArrow=none;endFill=0;entryX=0.5;entryY=1;entryDx=0;entryDy=0;" parent="1" source="2kPLmt5Cf6suRaBcKYo_-121" target="2kPLmt5Cf6suRaBcKYo_-131" edge="1">
          <mxGeometry relative="1" as="geometry">
            <mxPoint x="-798" y="909" as="targetPoint" />
          </mxGeometry>
        </mxCell>
        <mxCell id="2kPLmt5Cf6suRaBcKYo_-147" style="rounded=0;orthogonalLoop=1;jettySize=auto;html=1;exitX=0.5;exitY=1;exitDx=0;exitDy=0;endArrow=none;endFill=0;entryX=0.5;entryY=0;entryDx=0;entryDy=0;" parent="1" source="2kPLmt5Cf6suRaBcKYo_-121" edge="1" target="2kPLmt5Cf6suRaBcKYo_-148">
          <mxGeometry relative="1" as="geometry">
            <mxPoint x="-797" y="1328" as="targetPoint" />
            <mxPoint x="-798" y="1092" as="sourcePoint" />
          </mxGeometry>
        </mxCell>
        <mxCell id="2kPLmt5Cf6suRaBcKYo_-121" value="Oggetto" style="rounded=0;whiteSpace=wrap;html=1;" parent="1" vertex="1">
          <mxGeometry x="-858" y="994" width="120" height="50" as="geometry" />
        </mxCell>
        <mxCell id="2kPLmt5Cf6suRaBcKYo_-123" value="" style="endArrow=none;html=1;rounded=0;exitX=1;exitY=0.5;exitDx=0;exitDy=0;" parent="1" source="2kPLmt5Cf6suRaBcKYo_-124" edge="1">
          <mxGeometry width="50" height="50" relative="1" as="geometry">
            <mxPoint x="-667" y="739.41" as="sourcePoint" />
            <mxPoint x="-408" y="730" as="targetPoint" />
          </mxGeometry>
        </mxCell>
        <mxCell id="2kPLmt5Cf6suRaBcKYo_-140" style="rounded=0;orthogonalLoop=1;jettySize=auto;html=1;exitX=0.5;exitY=1;exitDx=0;exitDy=0;entryX=0.5;entryY=0;entryDx=0;entryDy=0;endArrow=none;endFill=0;" parent="1" source="2kPLmt5Cf6suRaBcKYo_-124" target="2kPLmt5Cf6suRaBcKYo_-121" edge="1">
          <mxGeometry relative="1" as="geometry">
            <mxPoint x="-798" y="1000" as="targetPoint" />
          </mxGeometry>
        </mxCell>
        <mxCell id="2kPLmt5Cf6suRaBcKYo_-124" value="Propone" style="rhombus;whiteSpace=wrap;html=1;" parent="1" vertex="1">
          <mxGeometry x="-838" y="690" width="80" height="80" as="geometry" />
        </mxCell>
        <mxCell id="2kPLmt5Cf6suRaBcKYo_-131" value="Descrizione" style="ellipse;whiteSpace=wrap;html=1;" parent="1" vertex="1">
          <mxGeometry x="-950.5" y="874" width="92.5" height="60" as="geometry" />
        </mxCell>
        <mxCell id="2kPLmt5Cf6suRaBcKYo_-143" style="rounded=0;orthogonalLoop=1;jettySize=auto;html=1;exitX=1;exitY=0.5;exitDx=0;exitDy=0;entryX=0;entryY=0.5;entryDx=0;entryDy=0;endArrow=none;endFill=0;" parent="1" source="2kPLmt5Cf6suRaBcKYo_-134" target="2kPLmt5Cf6suRaBcKYo_-121" edge="1">
          <mxGeometry relative="1" as="geometry" />
        </mxCell>
        <mxCell id="2kPLmt5Cf6suRaBcKYo_-144" style="rounded=0;orthogonalLoop=1;jettySize=auto;html=1;exitX=0;exitY=0.5;exitDx=0;exitDy=0;entryX=1;entryY=0.5;entryDx=0;entryDy=0;endArrow=none;endFill=0;" parent="1" source="2kPLmt5Cf6suRaBcKYo_-134" target="2kPLmt5Cf6suRaBcKYo_-137" edge="1">
          <mxGeometry relative="1" as="geometry" />
        </mxCell>
        <mxCell id="2kPLmt5Cf6suRaBcKYo_-134" value="Appartiene a" style="rhombus;whiteSpace=wrap;html=1;" parent="1" vertex="1">
          <mxGeometry x="-1078" y="978" width="93" height="80" as="geometry" />
        </mxCell>
        <mxCell id="2kPLmt5Cf6suRaBcKYo_-138" style="rounded=0;orthogonalLoop=1;jettySize=auto;html=1;exitX=0.25;exitY=1;exitDx=0;exitDy=0;endArrow=none;endFill=0;" parent="1" source="2kPLmt5Cf6suRaBcKYo_-137" edge="1">
          <mxGeometry relative="1" as="geometry">
            <mxPoint x="-1358" y="1123" as="targetPoint" />
          </mxGeometry>
        </mxCell>
        <mxCell id="2kPLmt5Cf6suRaBcKYo_-137" value="Categoria" style="rounded=0;whiteSpace=wrap;html=1;" parent="1" vertex="1">
          <mxGeometry x="-1338" y="993" width="120" height="50" as="geometry" />
        </mxCell>
        <mxCell id="2kPLmt5Cf6suRaBcKYo_-139" value="&lt;u&gt;NomeCategoria&lt;/u&gt;" style="ellipse;whiteSpace=wrap;html=1;" parent="1" vertex="1">
          <mxGeometry x="-1418" y="1123" width="100" height="60" as="geometry" />
        </mxCell>
        <mxCell id="2kPLmt5Cf6suRaBcKYo_-149" style="rounded=0;orthogonalLoop=1;jettySize=auto;html=1;exitX=1;exitY=0.5;exitDx=0;exitDy=0;entryX=0.75;entryY=1;entryDx=0;entryDy=0;endArrow=none;endFill=0;edgeStyle=orthogonalEdgeStyle;" parent="1" source="2kPLmt5Cf6suRaBcKYo_-148" target="2kPLmt5Cf6suRaBcKYo_-111" edge="1">
          <mxGeometry relative="1" as="geometry">
            <mxPoint x="351.5" y="1140" as="targetPoint" />
            <Array as="points">
              <mxPoint x="352" y="1548" />
            </Array>
          </mxGeometry>
        </mxCell>
        <mxCell id="2kPLmt5Cf6suRaBcKYo_-148" value="Offerto in" style="rhombus;whiteSpace=wrap;html=1;" parent="1" vertex="1">
          <mxGeometry x="-838" y="1508" width="80" height="80" as="geometry" />
        </mxCell>
        <mxCell id="JfNqwr-3UXqEqC72-lb5-4" style="rounded=0;orthogonalLoop=1;jettySize=auto;html=1;exitX=0.5;exitY=1;exitDx=0;exitDy=0;entryX=0.5;entryY=0;entryDx=0;entryDy=0;endArrow=none;endFill=0;" edge="1" parent="1" source="JfNqwr-3UXqEqC72-lb5-2" target="2kPLmt5Cf6suRaBcKYo_-45">
          <mxGeometry relative="1" as="geometry" />
        </mxCell>
        <mxCell id="JfNqwr-3UXqEqC72-lb5-2" value="Invia" style="rhombus;whiteSpace=wrap;html=1;" vertex="1" parent="1">
          <mxGeometry x="282" y="425" width="80" height="80" as="geometry" />
        </mxCell>
        <mxCell id="JfNqwr-3UXqEqC72-lb5-5" value="(0, N)" style="text;html=1;align=center;verticalAlign=middle;resizable=0;points=[];autosize=1;strokeColor=none;fillColor=none;" vertex="1" parent="1">
          <mxGeometry x="219" y="420" width="50" height="30" as="geometry" />
        </mxCell>
        <mxCell id="JfNqwr-3UXqEqC72-lb5-6" value="(1,1)" style="text;html=1;align=center;verticalAlign=middle;resizable=0;points=[];autosize=1;strokeColor=none;fillColor=none;" vertex="1" parent="1">
          <mxGeometry x="348" y="500" width="50" height="30" as="geometry" />
        </mxCell>
        <mxCell id="JfNqwr-3UXqEqC72-lb5-11" value="Ptop" style="ellipse;whiteSpace=wrap;html=1;" vertex="1" parent="1">
          <mxGeometry x="-860" y="470" width="70" height="60" as="geometry" />
        </mxCell>
        <mxCell id="JfNqwr-3UXqEqC72-lb5-12" value="Descrizione" style="ellipse;whiteSpace=wrap;html=1;" vertex="1" parent="1">
          <mxGeometry x="-790" y="410" width="90" height="60" as="geometry" />
        </mxCell>
        <mxCell id="JfNqwr-3UXqEqC72-lb5-14" value="Civico" style="ellipse;whiteSpace=wrap;html=1;" vertex="1" parent="1">
          <mxGeometry x="-687" y="390" width="70" height="60" as="geometry" />
        </mxCell>
        <mxCell id="JfNqwr-3UXqEqC72-lb5-15" value="CAP" style="ellipse;whiteSpace=wrap;html=1;" vertex="1" parent="1">
          <mxGeometry x="-607" y="380" width="70" height="60" as="geometry" />
        </mxCell>
        <mxCell id="JfNqwr-3UXqEqC72-lb5-22" value="(1,1)" style="text;html=1;align=center;verticalAlign=middle;resizable=0;points=[];autosize=1;strokeColor=none;fillColor=none;" vertex="1" parent="1">
          <mxGeometry x="-98" y="685" width="50" height="30" as="geometry" />
        </mxCell>
        <mxCell id="JfNqwr-3UXqEqC72-lb5-23" value="(0, N)" style="text;html=1;align=center;verticalAlign=middle;resizable=0;points=[];autosize=1;strokeColor=none;fillColor=none;" vertex="1" parent="1">
          <mxGeometry x="10" y="650" width="50" height="30" as="geometry" />
        </mxCell>
        <mxCell id="JfNqwr-3UXqEqC72-lb5-24" value="(0,1)" style="text;html=1;align=center;verticalAlign=middle;resizable=0;points=[];autosize=1;strokeColor=none;fillColor=none;" vertex="1" parent="1">
          <mxGeometry x="-758" y="755" width="50" height="30" as="geometry" />
        </mxCell>
        <mxCell id="JfNqwr-3UXqEqC72-lb5-25" value="(1,1)" style="text;html=1;align=center;verticalAlign=middle;resizable=0;points=[];autosize=1;strokeColor=none;fillColor=none;" vertex="1" parent="1">
          <mxGeometry x="-758" y="680" width="50" height="30" as="geometry" />
        </mxCell>
        <mxCell id="JfNqwr-3UXqEqC72-lb5-26" value="(0,1)" style="text;html=1;align=center;verticalAlign=middle;resizable=0;points=[];autosize=1;strokeColor=none;fillColor=none;" vertex="1" parent="1">
          <mxGeometry x="-1140" y="978" width="50" height="30" as="geometry" />
        </mxCell>
        <mxCell id="JfNqwr-3UXqEqC72-lb5-27" value="(1,1)" style="text;html=1;align=center;verticalAlign=middle;resizable=0;points=[];autosize=1;strokeColor=none;fillColor=none;" vertex="1" parent="1">
          <mxGeometry x="-980" y="978" width="50" height="30" as="geometry" />
        </mxCell>
        <mxCell id="JfNqwr-3UXqEqC72-lb5-28" value="(0,N)" style="text;html=1;align=center;verticalAlign=middle;resizable=0;points=[];autosize=1;strokeColor=none;fillColor=none;" vertex="1" parent="1">
          <mxGeometry x="-877" y="1490" width="50" height="30" as="geometry" />
        </mxCell>
        <mxCell id="JfNqwr-3UXqEqC72-lb5-29" value="(1,M)" style="text;html=1;align=center;verticalAlign=middle;resizable=0;points=[];autosize=1;strokeColor=none;fillColor=none;" vertex="1" parent="1">
          <mxGeometry x="-758" y="1508" width="50" height="30" as="geometry" />
        </mxCell>
        <mxCell id="JfNqwr-3UXqEqC72-lb5-32" style="rounded=0;orthogonalLoop=1;jettySize=auto;html=1;exitX=1;exitY=0.5;exitDx=0;exitDy=0;entryX=0.5;entryY=1;entryDx=0;entryDy=0;endArrow=none;endFill=0;edgeStyle=orthogonalEdgeStyle;" edge="1" parent="1" source="JfNqwr-3UXqEqC72-lb5-30" target="2kPLmt5Cf6suRaBcKYo_-105">
          <mxGeometry relative="1" as="geometry" />
        </mxCell>
        <mxCell id="JfNqwr-3UXqEqC72-lb5-30" value="Avere" style="rhombus;whiteSpace=wrap;html=1;" vertex="1" parent="1">
          <mxGeometry x="-80" y="1200" width="80" height="80" as="geometry" />
        </mxCell>
        <mxCell id="JfNqwr-3UXqEqC72-lb5-35" style="rounded=0;orthogonalLoop=1;jettySize=auto;html=1;exitX=1;exitY=0.5;exitDx=0;exitDy=0;entryX=0.5;entryY=1;entryDx=0;entryDy=0;endArrow=none;endFill=0;edgeStyle=orthogonalEdgeStyle;" edge="1" parent="1" source="JfNqwr-3UXqEqC72-lb5-33" target="2kPLmt5Cf6suRaBcKYo_-111">
          <mxGeometry relative="1" as="geometry" />
        </mxCell>
        <mxCell id="JfNqwr-3UXqEqC72-lb5-33" value="Avere" style="rhombus;whiteSpace=wrap;html=1;" vertex="1" parent="1">
          <mxGeometry x="-80" y="1320" width="80" height="80" as="geometry" />
        </mxCell>
        <mxCell id="JfNqwr-3UXqEqC72-lb5-39" style="rounded=0;orthogonalLoop=1;jettySize=auto;html=1;exitX=1;exitY=0.5;exitDx=0;exitDy=0;entryX=0.5;entryY=1;entryDx=0;entryDy=0;endArrow=none;endFill=0;edgeStyle=orthogonalEdgeStyle;" edge="1" parent="1" source="JfNqwr-3UXqEqC72-lb5-36" target="2kPLmt5Cf6suRaBcKYo_-112">
          <mxGeometry relative="1" as="geometry" />
        </mxCell>
        <mxCell id="JfNqwr-3UXqEqC72-lb5-36" value="Avere" style="rhombus;whiteSpace=wrap;html=1;" vertex="1" parent="1">
          <mxGeometry x="-80" y="1420" width="80" height="80" as="geometry" />
        </mxCell>
        <mxCell id="JfNqwr-3UXqEqC72-lb5-40" value="(0,N)" style="text;html=1;align=center;verticalAlign=middle;resizable=0;points=[];autosize=1;strokeColor=none;fillColor=none;" vertex="1" parent="1">
          <mxGeometry x="-128" y="1190" width="50" height="30" as="geometry" />
        </mxCell>
        <mxCell id="JfNqwr-3UXqEqC72-lb5-41" value="(0,N)" style="text;html=1;align=center;verticalAlign=middle;resizable=0;points=[];autosize=1;strokeColor=none;fillColor=none;" vertex="1" parent="1">
          <mxGeometry x="-130" y="1320" width="50" height="30" as="geometry" />
        </mxCell>
        <mxCell id="JfNqwr-3UXqEqC72-lb5-42" value="(0,N)" style="text;html=1;align=center;verticalAlign=middle;resizable=0;points=[];autosize=1;strokeColor=none;fillColor=none;" vertex="1" parent="1">
          <mxGeometry x="-130" y="1420" width="50" height="30" as="geometry" />
        </mxCell>
        <mxCell id="JfNqwr-3UXqEqC72-lb5-48" value="(1,1)" style="text;html=1;align=center;verticalAlign=middle;resizable=0;points=[];autosize=1;strokeColor=none;fillColor=none;" vertex="1" parent="1">
          <mxGeometry y="1190" width="50" height="30" as="geometry" />
        </mxCell>
        <mxCell id="JfNqwr-3UXqEqC72-lb5-49" value="(1,1)" style="text;html=1;align=center;verticalAlign=middle;resizable=0;points=[];autosize=1;strokeColor=none;fillColor=none;" vertex="1" parent="1">
          <mxGeometry x="20" y="1320" width="50" height="30" as="geometry" />
        </mxCell>
        <mxCell id="JfNqwr-3UXqEqC72-lb5-50" value="(1,1)" style="text;html=1;align=center;verticalAlign=middle;resizable=0;points=[];autosize=1;strokeColor=none;fillColor=none;" vertex="1" parent="1">
          <mxGeometry x="10" y="1420" width="50" height="30" as="geometry" />
        </mxCell>
      </root>
    </mxGraphModel>
  </diagram>
</mxfile>
